<svg width="160" height="62" viewBox="0 0 160 62" fill="none" xmlns="http://www.w3.org/2000/svg">
<path d="M8.25965 61.8833C6.77143 61.8833 5.43202 61.3082 4.24144 60.1581C3.05086 58.9579 2.10832 57.5577 1.41381 55.9575C0.719309 54.3073 0.297645 52.7321 0.148823 51.2319C0.099215 50.4318 0.0744113 46.7813 0.0744113 40.2804L0 30.4541C0 21.3529 0.0744112 14.927 0.223234 11.1765C0.421664 8.07608 1.53783 5.45073 3.57174 3.30045C5.65526 1.10015 7.98681 0 10.5664 0C17.7595 0.100012 23.5388 1.60021 27.9042 4.5006C32.3193 7.401 35.519 11.1515 37.5033 15.7521C39.4876 20.3527 40.4797 25.1284 40.4797 30.079C40.4301 38.8302 38.049 46.0812 33.3363 51.832C27.8794 58.5329 19.5206 61.8833 8.25965 61.8833ZM18.0075 37.43C18.2556 37.43 18.702 37.23 19.3469 36.8299C20.0414 36.4299 20.6615 35.7548 21.2072 34.8047C21.7529 33.8045 22.0257 32.4794 22.0257 30.8291C22.0257 29.0789 21.7777 27.7037 21.2816 26.7036C20.7856 25.7035 20.2151 24.9784 19.5702 24.5283C18.9749 24.0782 18.5036 23.8532 18.1564 23.8532C18.0075 23.8532 17.9083 23.9282 17.8587 24.0782C17.8587 32.3293 17.8339 36.7549 17.7843 37.355C17.7843 37.405 17.8587 37.43 18.0075 37.43Z" fill="#022D36"/>
<path d="M56.3155 62C52.7879 62 50.1862 61.6444 48.5106 60.9332C46.835 60.222 45.7546 58.7551 45.2696 56.5326C44.7845 54.2656 44.542 50.8429 44.542 46.2645L44.6081 32.6627C44.564 32.6627 44.5199 31.9293 44.4759 30.4624C44.4759 28.9956 44.4538 27.1953 44.4097 25.0617C44.4097 22.9281 44.4097 20.8389 44.4097 18.7942C44.4097 15.0159 44.4538 12.7712 44.542 12.06C44.983 8.81507 47.32 7.05928 51.5532 6.79258H67.4276C71.6608 6.79258 74.7475 7.99274 76.6877 10.3931C77.7019 11.7266 78.209 13.5713 78.209 15.9271C78.209 18.4608 77.4593 20.5278 75.9601 22.128C74.99 23.1503 73.5128 23.6615 71.5285 23.6615C69.8088 23.6615 67.8245 23.7504 65.5756 23.9282C63.8559 24.0616 62.555 24.1282 61.6731 24.1282C61.2763 24.2171 61.0778 24.4172 61.0778 24.7283L61.144 25.7951V26.0618C61.144 26.5063 61.2322 26.8397 61.4086 27.062C61.5849 27.2842 62.1361 27.4398 63.0621 27.5287C63.9881 27.5731 65.9063 27.5954 68.8166 27.5954C71.5064 27.5954 73.4466 28.3066 74.6372 29.729C75.3428 30.618 75.6955 31.996 75.6955 33.8629C75.6955 38.1746 74.5049 40.686 72.1238 41.3972C71.0655 41.7084 70.0072 41.864 68.9489 41.864C67.9347 41.864 67.141 41.864 66.5677 41.864L63.5251 41.9973C62.5991 42.0418 61.9377 42.0862 61.5408 42.1307C61.144 42.1751 60.9015 42.2862 60.8133 42.464C60.7251 42.6418 60.681 42.953 60.681 43.3975C60.681 43.842 60.703 44.1976 60.7471 44.4643C60.8353 44.731 61.0337 44.8866 61.3424 44.931C63.6354 44.9755 66.7882 44.9977 70.8009 44.9977C72.7411 45.2644 74.3285 46.2201 75.5632 47.8648C76.842 49.5094 77.4814 51.5541 77.4814 53.9989C77.4814 56.4437 76.6436 58.3551 74.9679 59.733C73.3364 61.0665 71.3962 61.7333 69.1473 61.7333C66.8984 61.7777 64.848 61.8222 62.996 61.8666C60.4384 61.9555 58.2116 62 56.3155 62Z" fill="#022D36"/>
<path d="M90.0507 61.8833C88.5625 61.8833 87.2231 61.3082 86.0325 60.1581C84.8419 58.9579 83.8994 57.5577 83.2049 55.9575C82.5104 54.3073 82.0887 52.7321 81.9399 51.2319C81.8902 50.4318 81.8654 46.7813 81.8654 40.2804L81.791 30.4541C81.791 21.3529 81.8655 14.927 82.0143 11.1765C82.2127 8.07608 83.3289 5.45073 85.3628 3.30045C87.4463 1.10015 89.7778 0 92.3574 0C99.5505 0.100012 105.33 1.60021 109.695 4.5006C114.11 7.401 117.31 11.1515 119.294 15.7521C121.279 20.3527 122.271 25.1284 122.271 30.079C122.221 38.8302 119.84 46.0812 115.127 51.832C109.67 58.5329 101.312 61.8833 90.0507 61.8833ZM99.7986 37.43C100.047 37.43 100.493 37.23 101.138 36.8299C101.832 36.4299 102.453 35.7548 102.998 34.8047C103.544 33.8045 103.817 32.4794 103.817 30.8291C103.817 29.0789 103.569 27.7037 103.073 26.7036C102.577 25.7035 102.006 24.9784 101.361 24.5283C100.766 24.0782 100.295 23.8532 99.9474 23.8532C99.7986 23.8532 99.6994 23.9282 99.6497 24.0782C99.6497 32.3293 99.6249 36.7549 99.5753 37.355C99.5753 37.405 99.6497 37.43 99.7986 37.43Z" fill="#022D36"/>
<path d="M138.107 62C134.579 62 131.977 61.6444 130.302 60.9332C128.626 60.222 127.546 58.7551 127.061 56.5326C126.576 54.2656 126.333 50.8429 126.333 46.2645L126.399 32.6627C126.355 32.6627 126.311 31.9293 126.267 30.4624C126.267 28.9956 126.245 27.1953 126.201 25.0617C126.201 22.9281 126.201 20.8389 126.201 18.7942C126.201 15.0159 126.245 12.7712 126.333 12.06C126.774 8.81507 129.111 7.05928 133.344 6.79258H149.219C153.452 6.79258 156.538 7.99274 158.479 10.3931C159.493 11.7266 160 13.5713 160 15.9271C160 18.4608 159.25 20.5278 157.751 22.128C156.781 23.1503 155.304 23.6615 153.32 23.6615C151.6 23.6615 149.615 23.7504 147.367 23.9282C145.647 24.0616 144.346 24.1282 143.464 24.1282C143.067 24.2171 142.869 24.4172 142.869 24.7283L142.935 25.7951V26.0618C142.935 26.5063 143.023 26.8397 143.2 27.062C143.376 27.2842 143.927 27.4398 144.853 27.5287C145.779 27.5731 147.697 27.5954 150.608 27.5954C153.297 27.5954 155.238 28.3066 156.428 29.729C157.134 30.618 157.487 31.996 157.487 33.8629C157.487 38.1746 156.296 40.686 153.915 41.3972C152.857 41.7084 151.798 41.864 150.74 41.864C149.726 41.864 148.932 41.864 148.359 41.864L145.316 41.9973C144.39 42.0418 143.729 42.0862 143.332 42.1307C142.935 42.1751 142.692 42.2862 142.604 42.464C142.516 42.6418 142.472 42.953 142.472 43.3975C142.472 43.842 142.494 44.1976 142.538 44.4643C142.626 44.731 142.825 44.8866 143.133 44.931C145.426 44.9755 148.579 44.9977 152.592 44.9977C154.532 45.2644 156.12 46.2201 157.354 47.8648C158.633 49.5094 159.272 51.5541 159.272 53.9989C159.272 56.4437 158.435 58.3551 156.759 59.733C155.127 61.0665 153.187 61.7333 150.938 61.7333C148.689 61.7777 146.639 61.8222 144.787 61.8666C142.229 61.9555 140.003 62 138.107 62Z" fill="#022D36"/>
</svg>
